<svg width="33" height="33" viewBox="0 0 33 33" fill="none" xmlns="http://www.w3.org/2000/svg">
<path d="M2.41952 7.79171C4.68647 4.09786 8.4425 1.32747 13.0653 0.338047C17.5992 -0.607404 22.3554 0.491957 25.9336 2.86658C25.1335 3.21837 22.2887 1.65728 20.3329 7.37396C19.155 10.8479 16.1546 11.5515 11.9318 8.51729C5.99775 4.27376 3.79747 8.45133 2.41952 7.79171V7.79171ZM8.82033 16.0149C7.79798 14.2779 7.33125 12.9367 6.0422 11.7274C4.7976 10.5841 2.90847 10.6281 1.81945 11.5515C-0.247479 13.2885 -0.314154 17.1803 0.441497 20.2145C2.64177 28.9434 11.6207 34.3303 20.4662 32.1536C29.3118 29.9768 34.668 21.138 32.49 12.387C31.8677 9.92447 30.7786 7.65979 29.4451 6.49447C27.3115 4.64754 25.6669 5.85684 25.1113 7.46191C24.1111 10.3202 24.5112 15.3773 22.5776 18.4995C19.2216 23.9083 12.0207 21.4678 8.82033 16.0149" fill="url(#paint0_linear_2_405)"/>
<defs>
<linearGradient id="paint0_linear_2_405" x1="2.20373" y1="24.4825" x2="30.6275" y2="7.89445" gradientUnits="userSpaceOnUse">
<stop stop-color="#10B981"/>
<stop offset="0.4" stop-color="#059669"/>
</linearGradient>
</defs>
</svg>
